<?xml version="1.0" encoding="utf-8" standalone="no"?>
<!DOCTYPE svg PUBLIC "-//W3C//DTD SVG 1.1//EN"
  "http://www.w3.org/Graphics/SVG/1.1/DTD/svg11.dtd">
<svg height="432pt" version="1.1" viewBox="0 0 1296 432" width="1296pt" xmlns="http://www.w3.org/2000/svg" xmlns:xlink="http://www.w3.org/1999/xlink">
 <metadata>
  <rdf:RDF xmlns:cc="http://creativecommons.org/ns#" xmlns:dc="http://purl.org/dc/elements/1.1/" xmlns:rdf="http://www.w3.org/1999/02/22-rdf-syntax-ns#">
   <cc:Work>
    <dc:type rdf:resource="http://purl.org/dc/dcmitype/StillImage"/>
    <dc:date>2022-01-14T10:32:14.508709</dc:date>
    <dc:format>image/svg+xml</dc:format>
    <dc:creator>
     <cc:Agent>
      <dc:title>Matplotlib v3.4.3, https://matplotlib.org/</dc:title>
     </cc:Agent>
    </dc:creator>
   </cc:Work>
  </rdf:RDF>
 </metadata>
 <defs>
  <style type="text/css">*{stroke-linecap:butt;stroke-linejoin:round;}</style>
 </defs>
 <g id="figure_1">
  <g id="patch_1">
   <path d="M 0 432 
L 1296 432 
L 1296 0 
L 0 0 
z
" style="fill:#ffffff;"/>
  </g>
  <g id="axes_1">
   <g id="patch_2">
    <path d="M 162 378 
L 1166.4 378 
L 1166.4 51.84 
L 162 51.84 
z
" style="fill:#ffffff;"/>
   </g>
   <g id="matplotlib.axis_1">
    <g id="xtick_1">
     <g id="text_1">
      <!-- 2004 -->
      <g style="fill:#262626;" transform="translate(171.548906 402.310391)scale(0.165 -0.165)">
       <defs>
        <path d="M 3222 541 
L 3222 0 
L 194 0 
Q 188 203 259 391 
Q 375 700 629 1000 
Q 884 1300 1366 1694 
Q 2113 2306 2375 2664 
Q 2638 3022 2638 3341 
Q 2638 3675 2398 3904 
Q 2159 4134 1775 4134 
Q 1369 4134 1125 3890 
Q 881 3647 878 3216 
L 300 3275 
Q 359 3922 746 4261 
Q 1134 4600 1788 4600 
Q 2447 4600 2831 4234 
Q 3216 3869 3216 3328 
Q 3216 3053 3103 2787 
Q 2991 2522 2730 2228 
Q 2469 1934 1863 1422 
Q 1356 997 1212 845 
Q 1069 694 975 541 
L 3222 541 
z
" id="ArialMT-32" transform="scale(0.015625)"/>
        <path d="M 266 2259 
Q 266 3072 433 3567 
Q 600 4063 929 4331 
Q 1259 4600 1759 4600 
Q 2128 4600 2406 4451 
Q 2684 4303 2865 4023 
Q 3047 3744 3150 3342 
Q 3253 2941 3253 2259 
Q 3253 1453 3087 958 
Q 2922 463 2592 192 
Q 2263 -78 1759 -78 
Q 1097 -78 719 397 
Q 266 969 266 2259 
z
M 844 2259 
Q 844 1131 1108 757 
Q 1372 384 1759 384 
Q 2147 384 2411 759 
Q 2675 1134 2675 2259 
Q 2675 3391 2411 3762 
Q 2147 4134 1753 4134 
Q 1366 4134 1134 3806 
Q 844 3388 844 2259 
z
" id="ArialMT-30" transform="scale(0.015625)"/>
        <path d="M 2069 0 
L 2069 1097 
L 81 1097 
L 81 1613 
L 2172 4581 
L 2631 4581 
L 2631 1613 
L 3250 1613 
L 3250 1097 
L 2631 1097 
L 2631 0 
L 2069 0 
z
M 2069 1613 
L 2069 3678 
L 634 1613 
L 2069 1613 
z
" id="ArialMT-34" transform="scale(0.015625)"/>
       </defs>
       <use xlink:href="#ArialMT-32"/>
       <use x="55.615234" xlink:href="#ArialMT-30"/>
       <use x="111.230469" xlink:href="#ArialMT-30"/>
       <use x="166.845703" xlink:href="#ArialMT-34"/>
      </g>
     </g>
    </g>
    <g id="xtick_2">
     <g id="text_2">
      <!-- 2005 -->
      <g style="fill:#262626;" transform="translate(227.348906 402.310391)scale(0.165 -0.165)">
       <defs>
        <path d="M 266 1200 
L 856 1250 
Q 922 819 1161 601 
Q 1400 384 1738 384 
Q 2144 384 2425 690 
Q 2706 997 2706 1503 
Q 2706 1984 2436 2262 
Q 2166 2541 1728 2541 
Q 1456 2541 1237 2417 
Q 1019 2294 894 2097 
L 366 2166 
L 809 4519 
L 3088 4519 
L 3088 3981 
L 1259 3981 
L 1013 2750 
Q 1425 3038 1878 3038 
Q 2478 3038 2890 2622 
Q 3303 2206 3303 1553 
Q 3303 931 2941 478 
Q 2500 -78 1738 -78 
Q 1113 -78 717 272 
Q 322 622 266 1200 
z
" id="ArialMT-35" transform="scale(0.015625)"/>
       </defs>
       <use xlink:href="#ArialMT-32"/>
       <use x="55.615234" xlink:href="#ArialMT-30"/>
       <use x="111.230469" xlink:href="#ArialMT-30"/>
       <use x="166.845703" xlink:href="#ArialMT-35"/>
      </g>
     </g>
    </g>
    <g id="xtick_3">
     <g id="text_3">
      <!-- 2006 -->
      <g style="fill:#262626;" transform="translate(283.148906 402.310391)scale(0.165 -0.165)">
       <defs>
        <path d="M 3184 3459 
L 2625 3416 
Q 2550 3747 2413 3897 
Q 2184 4138 1850 4138 
Q 1581 4138 1378 3988 
Q 1113 3794 959 3422 
Q 806 3050 800 2363 
Q 1003 2672 1297 2822 
Q 1591 2972 1913 2972 
Q 2475 2972 2870 2558 
Q 3266 2144 3266 1488 
Q 3266 1056 3080 686 
Q 2894 316 2569 119 
Q 2244 -78 1831 -78 
Q 1128 -78 684 439 
Q 241 956 241 2144 
Q 241 3472 731 4075 
Q 1159 4600 1884 4600 
Q 2425 4600 2770 4297 
Q 3116 3994 3184 3459 
z
M 888 1484 
Q 888 1194 1011 928 
Q 1134 663 1356 523 
Q 1578 384 1822 384 
Q 2178 384 2434 671 
Q 2691 959 2691 1453 
Q 2691 1928 2437 2201 
Q 2184 2475 1800 2475 
Q 1419 2475 1153 2201 
Q 888 1928 888 1484 
z
" id="ArialMT-36" transform="scale(0.015625)"/>
       </defs>
       <use xlink:href="#ArialMT-32"/>
       <use x="55.615234" xlink:href="#ArialMT-30"/>
       <use x="111.230469" xlink:href="#ArialMT-30"/>
       <use x="166.845703" xlink:href="#ArialMT-36"/>
      </g>
     </g>
    </g>
    <g id="xtick_4">
     <g id="text_4">
      <!-- 2007 -->
      <g style="fill:#262626;" transform="translate(338.948906 402.310391)scale(0.165 -0.165)">
       <defs>
        <path d="M 303 3981 
L 303 4522 
L 3269 4522 
L 3269 4084 
Q 2831 3619 2401 2847 
Q 1972 2075 1738 1259 
Q 1569 684 1522 0 
L 944 0 
Q 953 541 1156 1306 
Q 1359 2072 1739 2783 
Q 2119 3494 2547 3981 
L 303 3981 
z
" id="ArialMT-37" transform="scale(0.015625)"/>
       </defs>
       <use xlink:href="#ArialMT-32"/>
       <use x="55.615234" xlink:href="#ArialMT-30"/>
       <use x="111.230469" xlink:href="#ArialMT-30"/>
       <use x="166.845703" xlink:href="#ArialMT-37"/>
      </g>
     </g>
    </g>
    <g id="xtick_5">
     <g id="text_5">
      <!-- 2008 -->
      <g style="fill:#262626;" transform="translate(394.748906 402.310391)scale(0.165 -0.165)">
       <defs>
        <path d="M 1131 2484 
Q 781 2613 612 2850 
Q 444 3088 444 3419 
Q 444 3919 803 4259 
Q 1163 4600 1759 4600 
Q 2359 4600 2725 4251 
Q 3091 3903 3091 3403 
Q 3091 3084 2923 2848 
Q 2756 2613 2416 2484 
Q 2838 2347 3058 2040 
Q 3278 1734 3278 1309 
Q 3278 722 2862 322 
Q 2447 -78 1769 -78 
Q 1091 -78 675 323 
Q 259 725 259 1325 
Q 259 1772 486 2073 
Q 713 2375 1131 2484 
z
M 1019 3438 
Q 1019 3113 1228 2906 
Q 1438 2700 1772 2700 
Q 2097 2700 2305 2904 
Q 2513 3109 2513 3406 
Q 2513 3716 2298 3927 
Q 2084 4138 1766 4138 
Q 1444 4138 1231 3931 
Q 1019 3725 1019 3438 
z
M 838 1322 
Q 838 1081 952 856 
Q 1066 631 1291 507 
Q 1516 384 1775 384 
Q 2178 384 2440 643 
Q 2703 903 2703 1303 
Q 2703 1709 2433 1975 
Q 2163 2241 1756 2241 
Q 1359 2241 1098 1978 
Q 838 1716 838 1322 
z
" id="ArialMT-38" transform="scale(0.015625)"/>
       </defs>
       <use xlink:href="#ArialMT-32"/>
       <use x="55.615234" xlink:href="#ArialMT-30"/>
       <use x="111.230469" xlink:href="#ArialMT-30"/>
       <use x="166.845703" xlink:href="#ArialMT-38"/>
      </g>
     </g>
    </g>
    <g id="xtick_6">
     <g id="text_6">
      <!-- 2009 -->
      <g style="fill:#262626;" transform="translate(450.548906 402.310391)scale(0.165 -0.165)">
       <defs>
        <path d="M 350 1059 
L 891 1109 
Q 959 728 1153 556 
Q 1347 384 1650 384 
Q 1909 384 2104 503 
Q 2300 622 2425 820 
Q 2550 1019 2634 1356 
Q 2719 1694 2719 2044 
Q 2719 2081 2716 2156 
Q 2547 1888 2255 1720 
Q 1963 1553 1622 1553 
Q 1053 1553 659 1965 
Q 266 2378 266 3053 
Q 266 3750 677 4175 
Q 1088 4600 1706 4600 
Q 2153 4600 2523 4359 
Q 2894 4119 3086 3673 
Q 3278 3228 3278 2384 
Q 3278 1506 3087 986 
Q 2897 466 2520 194 
Q 2144 -78 1638 -78 
Q 1100 -78 759 220 
Q 419 519 350 1059 
z
M 2653 3081 
Q 2653 3566 2395 3850 
Q 2138 4134 1775 4134 
Q 1400 4134 1122 3828 
Q 844 3522 844 3034 
Q 844 2597 1108 2323 
Q 1372 2050 1759 2050 
Q 2150 2050 2401 2323 
Q 2653 2597 2653 3081 
z
" id="ArialMT-39" transform="scale(0.015625)"/>
       </defs>
       <use xlink:href="#ArialMT-32"/>
       <use x="55.615234" xlink:href="#ArialMT-30"/>
       <use x="111.230469" xlink:href="#ArialMT-30"/>
       <use x="166.845703" xlink:href="#ArialMT-39"/>
      </g>
     </g>
    </g>
    <g id="xtick_7">
     <g id="text_7">
      <!-- 2010 -->
      <g style="fill:#262626;" transform="translate(506.348906 402.310391)scale(0.165 -0.165)">
       <defs>
        <path d="M 2384 0 
L 1822 0 
L 1822 3584 
Q 1619 3391 1289 3197 
Q 959 3003 697 2906 
L 697 3450 
Q 1169 3672 1522 3987 
Q 1875 4303 2022 4600 
L 2384 4600 
L 2384 0 
z
" id="ArialMT-31" transform="scale(0.015625)"/>
       </defs>
       <use xlink:href="#ArialMT-32"/>
       <use x="55.615234" xlink:href="#ArialMT-30"/>
       <use x="111.230469" xlink:href="#ArialMT-31"/>
       <use x="166.845703" xlink:href="#ArialMT-30"/>
      </g>
     </g>
    </g>
    <g id="xtick_8">
     <g id="text_8">
      <!-- 2011 -->
      <g style="fill:#262626;" transform="translate(562.757344 402.310391)scale(0.165 -0.165)">
       <use xlink:href="#ArialMT-32"/>
       <use x="55.615234" xlink:href="#ArialMT-30"/>
       <use x="111.230469" xlink:href="#ArialMT-31"/>
       <use x="159.470703" xlink:href="#ArialMT-31"/>
      </g>
     </g>
    </g>
    <g id="xtick_9">
     <g id="text_9">
      <!-- 2012 -->
      <g style="fill:#262626;" transform="translate(617.948906 402.310391)scale(0.165 -0.165)">
       <use xlink:href="#ArialMT-32"/>
       <use x="55.615234" xlink:href="#ArialMT-30"/>
       <use x="111.230469" xlink:href="#ArialMT-31"/>
       <use x="166.845703" xlink:href="#ArialMT-32"/>
      </g>
     </g>
    </g>
    <g id="xtick_10">
     <g id="text_10">
      <!-- 2013 -->
      <g style="fill:#262626;" transform="translate(673.748906 402.310391)scale(0.165 -0.165)">
       <defs>
        <path d="M 269 1209 
L 831 1284 
Q 928 806 1161 595 
Q 1394 384 1728 384 
Q 2125 384 2398 659 
Q 2672 934 2672 1341 
Q 2672 1728 2419 1979 
Q 2166 2231 1775 2231 
Q 1616 2231 1378 2169 
L 1441 2663 
Q 1497 2656 1531 2656 
Q 1891 2656 2178 2843 
Q 2466 3031 2466 3422 
Q 2466 3731 2256 3934 
Q 2047 4138 1716 4138 
Q 1388 4138 1169 3931 
Q 950 3725 888 3313 
L 325 3413 
Q 428 3978 793 4289 
Q 1159 4600 1703 4600 
Q 2078 4600 2393 4439 
Q 2709 4278 2876 4000 
Q 3044 3722 3044 3409 
Q 3044 3113 2884 2869 
Q 2725 2625 2413 2481 
Q 2819 2388 3044 2092 
Q 3269 1797 3269 1353 
Q 3269 753 2831 336 
Q 2394 -81 1725 -81 
Q 1122 -81 723 278 
Q 325 638 269 1209 
z
" id="ArialMT-33" transform="scale(0.015625)"/>
       </defs>
       <use xlink:href="#ArialMT-32"/>
       <use x="55.615234" xlink:href="#ArialMT-30"/>
       <use x="111.230469" xlink:href="#ArialMT-31"/>
       <use x="166.845703" xlink:href="#ArialMT-33"/>
      </g>
     </g>
    </g>
    <g id="xtick_11">
     <g id="text_11">
      <!-- 2014 -->
      <g style="fill:#262626;" transform="translate(729.548906 402.310391)scale(0.165 -0.165)">
       <use xlink:href="#ArialMT-32"/>
       <use x="55.615234" xlink:href="#ArialMT-30"/>
       <use x="111.230469" xlink:href="#ArialMT-31"/>
       <use x="166.845703" xlink:href="#ArialMT-34"/>
      </g>
     </g>
    </g>
    <g id="xtick_12">
     <g id="text_12">
      <!-- 2015 -->
      <g style="fill:#262626;" transform="translate(785.348906 402.310391)scale(0.165 -0.165)">
       <use xlink:href="#ArialMT-32"/>
       <use x="55.615234" xlink:href="#ArialMT-30"/>
       <use x="111.230469" xlink:href="#ArialMT-31"/>
       <use x="166.845703" xlink:href="#ArialMT-35"/>
      </g>
     </g>
    </g>
    <g id="xtick_13">
     <g id="text_13">
      <!-- 2016 -->
      <g style="fill:#262626;" transform="translate(841.148906 402.310391)scale(0.165 -0.165)">
       <use xlink:href="#ArialMT-32"/>
       <use x="55.615234" xlink:href="#ArialMT-30"/>
       <use x="111.230469" xlink:href="#ArialMT-31"/>
       <use x="166.845703" xlink:href="#ArialMT-36"/>
      </g>
     </g>
    </g>
    <g id="xtick_14">
     <g id="text_14">
      <!-- 2017 -->
      <g style="fill:#262626;" transform="translate(896.948906 402.310391)scale(0.165 -0.165)">
       <use xlink:href="#ArialMT-32"/>
       <use x="55.615234" xlink:href="#ArialMT-30"/>
       <use x="111.230469" xlink:href="#ArialMT-31"/>
       <use x="166.845703" xlink:href="#ArialMT-37"/>
      </g>
     </g>
    </g>
    <g id="xtick_15">
     <g id="text_15">
      <!-- 2018 -->
      <g style="fill:#262626;" transform="translate(952.748906 402.310391)scale(0.165 -0.165)">
       <use xlink:href="#ArialMT-32"/>
       <use x="55.615234" xlink:href="#ArialMT-30"/>
       <use x="111.230469" xlink:href="#ArialMT-31"/>
       <use x="166.845703" xlink:href="#ArialMT-38"/>
      </g>
     </g>
    </g>
    <g id="xtick_16">
     <g id="text_16">
      <!-- 2019 -->
      <g style="fill:#262626;" transform="translate(1008.548906 402.310391)scale(0.165 -0.165)">
       <use xlink:href="#ArialMT-32"/>
       <use x="55.615234" xlink:href="#ArialMT-30"/>
       <use x="111.230469" xlink:href="#ArialMT-31"/>
       <use x="166.845703" xlink:href="#ArialMT-39"/>
      </g>
     </g>
    </g>
    <g id="xtick_17">
     <g id="text_17">
      <!-- 2020 -->
      <g style="fill:#262626;" transform="translate(1064.348906 402.310391)scale(0.165 -0.165)">
       <use xlink:href="#ArialMT-32"/>
       <use x="55.615234" xlink:href="#ArialMT-30"/>
       <use x="111.230469" xlink:href="#ArialMT-32"/>
       <use x="166.845703" xlink:href="#ArialMT-30"/>
      </g>
     </g>
    </g>
    <g id="xtick_18">
     <g id="text_18">
      <!-- 2021 -->
      <g style="fill:#262626;" transform="translate(1120.148906 402.310391)scale(0.165 -0.165)">
       <use xlink:href="#ArialMT-32"/>
       <use x="55.615234" xlink:href="#ArialMT-30"/>
       <use x="111.230469" xlink:href="#ArialMT-32"/>
       <use x="166.845703" xlink:href="#ArialMT-31"/>
      </g>
     </g>
    </g>
    <g id="text_19">
     <!-- submission year -->
     <g style="fill:#262626;" transform="translate(591.953125 423.905391)scale(0.2 -0.2)">
      <defs>
       <path d="M 197 991 
L 753 1078 
Q 800 744 1014 566 
Q 1228 388 1613 388 
Q 2000 388 2187 545 
Q 2375 703 2375 916 
Q 2375 1106 2209 1216 
Q 2094 1291 1634 1406 
Q 1016 1563 777 1677 
Q 538 1791 414 1992 
Q 291 2194 291 2438 
Q 291 2659 392 2848 
Q 494 3038 669 3163 
Q 800 3259 1026 3326 
Q 1253 3394 1513 3394 
Q 1903 3394 2198 3281 
Q 2494 3169 2634 2976 
Q 2775 2784 2828 2463 
L 2278 2388 
Q 2241 2644 2061 2787 
Q 1881 2931 1553 2931 
Q 1166 2931 1000 2803 
Q 834 2675 834 2503 
Q 834 2394 903 2306 
Q 972 2216 1119 2156 
Q 1203 2125 1616 2013 
Q 2213 1853 2448 1751 
Q 2684 1650 2818 1456 
Q 2953 1263 2953 975 
Q 2953 694 2789 445 
Q 2625 197 2315 61 
Q 2006 -75 1616 -75 
Q 969 -75 630 194 
Q 291 463 197 991 
z
" id="ArialMT-73" transform="scale(0.015625)"/>
       <path d="M 2597 0 
L 2597 488 
Q 2209 -75 1544 -75 
Q 1250 -75 995 37 
Q 741 150 617 320 
Q 494 491 444 738 
Q 409 903 409 1263 
L 409 3319 
L 972 3319 
L 972 1478 
Q 972 1038 1006 884 
Q 1059 663 1231 536 
Q 1403 409 1656 409 
Q 1909 409 2131 539 
Q 2353 669 2445 892 
Q 2538 1116 2538 1541 
L 2538 3319 
L 3100 3319 
L 3100 0 
L 2597 0 
z
" id="ArialMT-75" transform="scale(0.015625)"/>
       <path d="M 941 0 
L 419 0 
L 419 4581 
L 981 4581 
L 981 2947 
Q 1338 3394 1891 3394 
Q 2197 3394 2470 3270 
Q 2744 3147 2920 2923 
Q 3097 2700 3197 2384 
Q 3297 2069 3297 1709 
Q 3297 856 2875 390 
Q 2453 -75 1863 -75 
Q 1275 -75 941 416 
L 941 0 
z
M 934 1684 
Q 934 1088 1097 822 
Q 1363 388 1816 388 
Q 2184 388 2453 708 
Q 2722 1028 2722 1663 
Q 2722 2313 2464 2622 
Q 2206 2931 1841 2931 
Q 1472 2931 1203 2611 
Q 934 2291 934 1684 
z
" id="ArialMT-62" transform="scale(0.015625)"/>
       <path d="M 422 0 
L 422 3319 
L 925 3319 
L 925 2853 
Q 1081 3097 1340 3245 
Q 1600 3394 1931 3394 
Q 2300 3394 2536 3241 
Q 2772 3088 2869 2813 
Q 3263 3394 3894 3394 
Q 4388 3394 4653 3120 
Q 4919 2847 4919 2278 
L 4919 0 
L 4359 0 
L 4359 2091 
Q 4359 2428 4304 2576 
Q 4250 2725 4106 2815 
Q 3963 2906 3769 2906 
Q 3419 2906 3187 2673 
Q 2956 2441 2956 1928 
L 2956 0 
L 2394 0 
L 2394 2156 
Q 2394 2531 2256 2718 
Q 2119 2906 1806 2906 
Q 1569 2906 1367 2781 
Q 1166 2656 1075 2415 
Q 984 2175 984 1722 
L 984 0 
L 422 0 
z
" id="ArialMT-6d" transform="scale(0.015625)"/>
       <path d="M 425 3934 
L 425 4581 
L 988 4581 
L 988 3934 
L 425 3934 
z
M 425 0 
L 425 3319 
L 988 3319 
L 988 0 
L 425 0 
z
" id="ArialMT-69" transform="scale(0.015625)"/>
       <path d="M 213 1659 
Q 213 2581 725 3025 
Q 1153 3394 1769 3394 
Q 2453 3394 2887 2945 
Q 3322 2497 3322 1706 
Q 3322 1066 3130 698 
Q 2938 331 2570 128 
Q 2203 -75 1769 -75 
Q 1072 -75 642 372 
Q 213 819 213 1659 
z
M 791 1659 
Q 791 1022 1069 705 
Q 1347 388 1769 388 
Q 2188 388 2466 706 
Q 2744 1025 2744 1678 
Q 2744 2294 2464 2611 
Q 2184 2928 1769 2928 
Q 1347 2928 1069 2612 
Q 791 2297 791 1659 
z
" id="ArialMT-6f" transform="scale(0.015625)"/>
       <path d="M 422 0 
L 422 3319 
L 928 3319 
L 928 2847 
Q 1294 3394 1984 3394 
Q 2284 3394 2536 3286 
Q 2788 3178 2913 3003 
Q 3038 2828 3088 2588 
Q 3119 2431 3119 2041 
L 3119 0 
L 2556 0 
L 2556 2019 
Q 2556 2363 2490 2533 
Q 2425 2703 2258 2804 
Q 2091 2906 1866 2906 
Q 1506 2906 1245 2678 
Q 984 2450 984 1813 
L 984 0 
L 422 0 
z
" id="ArialMT-6e" transform="scale(0.015625)"/>
       <path id="ArialMT-20" transform="scale(0.015625)"/>
       <path d="M 397 -1278 
L 334 -750 
Q 519 -800 656 -800 
Q 844 -800 956 -737 
Q 1069 -675 1141 -563 
Q 1194 -478 1313 -144 
Q 1328 -97 1363 -6 
L 103 3319 
L 709 3319 
L 1400 1397 
Q 1534 1031 1641 628 
Q 1738 1016 1872 1384 
L 2581 3319 
L 3144 3319 
L 1881 -56 
Q 1678 -603 1566 -809 
Q 1416 -1088 1222 -1217 
Q 1028 -1347 759 -1347 
Q 597 -1347 397 -1278 
z
" id="ArialMT-79" transform="scale(0.015625)"/>
       <path d="M 2694 1069 
L 3275 997 
Q 3138 488 2766 206 
Q 2394 -75 1816 -75 
Q 1088 -75 661 373 
Q 234 822 234 1631 
Q 234 2469 665 2931 
Q 1097 3394 1784 3394 
Q 2450 3394 2872 2941 
Q 3294 2488 3294 1666 
Q 3294 1616 3291 1516 
L 816 1516 
Q 847 969 1125 678 
Q 1403 388 1819 388 
Q 2128 388 2347 550 
Q 2566 713 2694 1069 
z
M 847 1978 
L 2700 1978 
Q 2663 2397 2488 2606 
Q 2219 2931 1791 2931 
Q 1403 2931 1139 2672 
Q 875 2413 847 1978 
z
" id="ArialMT-65" transform="scale(0.015625)"/>
       <path d="M 2588 409 
Q 2275 144 1986 34 
Q 1697 -75 1366 -75 
Q 819 -75 525 192 
Q 231 459 231 875 
Q 231 1119 342 1320 
Q 453 1522 633 1644 
Q 813 1766 1038 1828 
Q 1203 1872 1538 1913 
Q 2219 1994 2541 2106 
Q 2544 2222 2544 2253 
Q 2544 2597 2384 2738 
Q 2169 2928 1744 2928 
Q 1347 2928 1158 2789 
Q 969 2650 878 2297 
L 328 2372 
Q 403 2725 575 2942 
Q 747 3159 1072 3276 
Q 1397 3394 1825 3394 
Q 2250 3394 2515 3294 
Q 2781 3194 2906 3042 
Q 3031 2891 3081 2659 
Q 3109 2516 3109 2141 
L 3109 1391 
Q 3109 606 3145 398 
Q 3181 191 3288 0 
L 2700 0 
Q 2613 175 2588 409 
z
M 2541 1666 
Q 2234 1541 1622 1453 
Q 1275 1403 1131 1340 
Q 988 1278 909 1158 
Q 831 1038 831 891 
Q 831 666 1001 516 
Q 1172 366 1500 366 
Q 1825 366 2078 508 
Q 2331 650 2450 897 
Q 2541 1088 2541 1459 
L 2541 1666 
z
" id="ArialMT-61" transform="scale(0.015625)"/>
       <path d="M 416 0 
L 416 3319 
L 922 3319 
L 922 2816 
Q 1116 3169 1280 3281 
Q 1444 3394 1641 3394 
Q 1925 3394 2219 3213 
L 2025 2691 
Q 1819 2813 1613 2813 
Q 1428 2813 1281 2702 
Q 1134 2591 1072 2394 
Q 978 2094 978 1738 
L 978 0 
L 416 0 
z
" id="ArialMT-72" transform="scale(0.015625)"/>
      </defs>
      <use xlink:href="#ArialMT-73"/>
      <use x="50" xlink:href="#ArialMT-75"/>
      <use x="105.615234" xlink:href="#ArialMT-62"/>
      <use x="161.230469" xlink:href="#ArialMT-6d"/>
      <use x="244.53125" xlink:href="#ArialMT-69"/>
      <use x="266.748047" xlink:href="#ArialMT-73"/>
      <use x="316.748047" xlink:href="#ArialMT-73"/>
      <use x="366.748047" xlink:href="#ArialMT-69"/>
      <use x="388.964844" xlink:href="#ArialMT-6f"/>
      <use x="444.580078" xlink:href="#ArialMT-6e"/>
      <use x="500.195312" xlink:href="#ArialMT-20"/>
      <use x="527.978516" xlink:href="#ArialMT-79"/>
      <use x="577.978516" xlink:href="#ArialMT-65"/>
      <use x="633.59375" xlink:href="#ArialMT-61"/>
      <use x="689.208984" xlink:href="#ArialMT-72"/>
     </g>
    </g>
   </g>
   <g id="matplotlib.axis_2">
    <g id="ytick_1">
     <g id="line2d_1">
      <path clip-path="url(#p9039787879)" d="M 162 378 
L 1166.4 378 
" style="fill:none;stroke:#cccccc;stroke-linecap:round;stroke-width:1.5;"/>
     </g>
     <g id="text_20">
      <!-- 0 -->
      <g style="fill:#262626;" transform="translate(140.324453 383.905195)scale(0.165 -0.165)">
       <use xlink:href="#ArialMT-30"/>
      </g>
     </g>
    </g>
    <g id="ytick_2">
     <g id="line2d_2">
      <path clip-path="url(#p9039787879)" d="M 162 339.628235 
L 1166.4 339.628235 
" style="fill:none;stroke:#cccccc;stroke-linecap:round;stroke-width:1.5;"/>
     </g>
     <g id="text_21">
      <!-- 200 -->
      <g style="fill:#262626;" transform="translate(121.973359 345.533431)scale(0.165 -0.165)">
       <use xlink:href="#ArialMT-32"/>
       <use x="55.615234" xlink:href="#ArialMT-30"/>
       <use x="111.230469" xlink:href="#ArialMT-30"/>
      </g>
     </g>
    </g>
    <g id="ytick_3">
     <g id="line2d_3">
      <path clip-path="url(#p9039787879)" d="M 162 301.256471 
L 1166.4 301.256471 
" style="fill:none;stroke:#cccccc;stroke-linecap:round;stroke-width:1.5;"/>
     </g>
     <g id="text_22">
      <!-- 400 -->
      <g style="fill:#262626;" transform="translate(121.973359 307.161666)scale(0.165 -0.165)">
       <use xlink:href="#ArialMT-34"/>
       <use x="55.615234" xlink:href="#ArialMT-30"/>
       <use x="111.230469" xlink:href="#ArialMT-30"/>
      </g>
     </g>
    </g>
    <g id="ytick_4">
     <g id="line2d_4">
      <path clip-path="url(#p9039787879)" d="M 162 262.884706 
L 1166.4 262.884706 
" style="fill:none;stroke:#cccccc;stroke-linecap:round;stroke-width:1.5;"/>
     </g>
     <g id="text_23">
      <!-- 600 -->
      <g style="fill:#262626;" transform="translate(121.973359 268.789901)scale(0.165 -0.165)">
       <use xlink:href="#ArialMT-36"/>
       <use x="55.615234" xlink:href="#ArialMT-30"/>
       <use x="111.230469" xlink:href="#ArialMT-30"/>
      </g>
     </g>
    </g>
    <g id="ytick_5">
     <g id="line2d_5">
      <path clip-path="url(#p9039787879)" d="M 162 224.512941 
L 1166.4 224.512941 
" style="fill:none;stroke:#cccccc;stroke-linecap:round;stroke-width:1.5;"/>
     </g>
     <g id="text_24">
      <!-- 800 -->
      <g style="fill:#262626;" transform="translate(121.973359 230.418136)scale(0.165 -0.165)">
       <use xlink:href="#ArialMT-38"/>
       <use x="55.615234" xlink:href="#ArialMT-30"/>
       <use x="111.230469" xlink:href="#ArialMT-30"/>
      </g>
     </g>
    </g>
    <g id="ytick_6">
     <g id="line2d_6">
      <path clip-path="url(#p9039787879)" d="M 162 186.141176 
L 1166.4 186.141176 
" style="fill:none;stroke:#cccccc;stroke-linecap:round;stroke-width:1.5;"/>
     </g>
     <g id="text_25">
      <!-- 1000 -->
      <g style="fill:#262626;" transform="translate(112.797812 192.046372)scale(0.165 -0.165)">
       <use xlink:href="#ArialMT-31"/>
       <use x="55.615234" xlink:href="#ArialMT-30"/>
       <use x="111.230469" xlink:href="#ArialMT-30"/>
       <use x="166.845703" xlink:href="#ArialMT-30"/>
      </g>
     </g>
    </g>
    <g id="ytick_7">
     <g id="line2d_7">
      <path clip-path="url(#p9039787879)" d="M 162 147.769412 
L 1166.4 147.769412 
" style="fill:none;stroke:#cccccc;stroke-linecap:round;stroke-width:1.5;"/>
     </g>
     <g id="text_26">
      <!-- 1200 -->
      <g style="fill:#262626;" transform="translate(112.797812 153.674607)scale(0.165 -0.165)">
       <use xlink:href="#ArialMT-31"/>
       <use x="55.615234" xlink:href="#ArialMT-32"/>
       <use x="111.230469" xlink:href="#ArialMT-30"/>
       <use x="166.845703" xlink:href="#ArialMT-30"/>
      </g>
     </g>
    </g>
    <g id="ytick_8">
     <g id="line2d_8">
      <path clip-path="url(#p9039787879)" d="M 162 109.397647 
L 1166.4 109.397647 
" style="fill:none;stroke:#cccccc;stroke-linecap:round;stroke-width:1.5;"/>
     </g>
     <g id="text_27">
      <!-- 1400 -->
      <g style="fill:#262626;" transform="translate(112.797812 115.302842)scale(0.165 -0.165)">
       <use xlink:href="#ArialMT-31"/>
       <use x="55.615234" xlink:href="#ArialMT-34"/>
       <use x="111.230469" xlink:href="#ArialMT-30"/>
       <use x="166.845703" xlink:href="#ArialMT-30"/>
      </g>
     </g>
    </g>
    <g id="ytick_9">
     <g id="line2d_9">
      <path clip-path="url(#p9039787879)" d="M 162 71.025882 
L 1166.4 71.025882 
" style="fill:none;stroke:#cccccc;stroke-linecap:round;stroke-width:1.5;"/>
     </g>
     <g id="text_28">
      <!-- 1600 -->
      <g style="fill:#262626;" transform="translate(112.797812 76.931078)scale(0.165 -0.165)">
       <use xlink:href="#ArialMT-31"/>
       <use x="55.615234" xlink:href="#ArialMT-36"/>
       <use x="111.230469" xlink:href="#ArialMT-30"/>
       <use x="166.845703" xlink:href="#ArialMT-30"/>
      </g>
     </g>
    </g>
    <g id="text_29">
     <!-- submitted manuscripts -->
     <g style="fill:#262626;" transform="translate(104.822812 314.952812)rotate(-90)scale(0.2 -0.2)">
      <defs>
       <path d="M 1650 503 
L 1731 6 
Q 1494 -44 1306 -44 
Q 1000 -44 831 53 
Q 663 150 594 308 
Q 525 466 525 972 
L 525 2881 
L 113 2881 
L 113 3319 
L 525 3319 
L 525 4141 
L 1084 4478 
L 1084 3319 
L 1650 3319 
L 1650 2881 
L 1084 2881 
L 1084 941 
Q 1084 700 1114 631 
Q 1144 563 1211 522 
Q 1278 481 1403 481 
Q 1497 481 1650 503 
z
" id="ArialMT-74" transform="scale(0.015625)"/>
       <path d="M 2575 0 
L 2575 419 
Q 2259 -75 1647 -75 
Q 1250 -75 917 144 
Q 584 363 401 755 
Q 219 1147 219 1656 
Q 219 2153 384 2558 
Q 550 2963 881 3178 
Q 1213 3394 1622 3394 
Q 1922 3394 2156 3267 
Q 2391 3141 2538 2938 
L 2538 4581 
L 3097 4581 
L 3097 0 
L 2575 0 
z
M 797 1656 
Q 797 1019 1065 703 
Q 1334 388 1700 388 
Q 2069 388 2326 689 
Q 2584 991 2584 1609 
Q 2584 2291 2321 2609 
Q 2059 2928 1675 2928 
Q 1300 2928 1048 2622 
Q 797 2316 797 1656 
z
" id="ArialMT-64" transform="scale(0.015625)"/>
       <path d="M 2588 1216 
L 3141 1144 
Q 3050 572 2676 248 
Q 2303 -75 1759 -75 
Q 1078 -75 664 370 
Q 250 816 250 1647 
Q 250 2184 428 2587 
Q 606 2991 970 3192 
Q 1334 3394 1763 3394 
Q 2303 3394 2647 3120 
Q 2991 2847 3088 2344 
L 2541 2259 
Q 2463 2594 2264 2762 
Q 2066 2931 1784 2931 
Q 1359 2931 1093 2626 
Q 828 2322 828 1663 
Q 828 994 1084 691 
Q 1341 388 1753 388 
Q 2084 388 2306 591 
Q 2528 794 2588 1216 
z
" id="ArialMT-63" transform="scale(0.015625)"/>
       <path d="M 422 -1272 
L 422 3319 
L 934 3319 
L 934 2888 
Q 1116 3141 1344 3267 
Q 1572 3394 1897 3394 
Q 2322 3394 2647 3175 
Q 2972 2956 3137 2557 
Q 3303 2159 3303 1684 
Q 3303 1175 3120 767 
Q 2938 359 2589 142 
Q 2241 -75 1856 -75 
Q 1575 -75 1351 44 
Q 1128 163 984 344 
L 984 -1272 
L 422 -1272 
z
M 931 1641 
Q 931 1000 1190 694 
Q 1450 388 1819 388 
Q 2194 388 2461 705 
Q 2728 1022 2728 1688 
Q 2728 2322 2467 2637 
Q 2206 2953 1844 2953 
Q 1484 2953 1207 2617 
Q 931 2281 931 1641 
z
" id="ArialMT-70" transform="scale(0.015625)"/>
      </defs>
      <use xlink:href="#ArialMT-73"/>
      <use x="50" xlink:href="#ArialMT-75"/>
      <use x="105.615234" xlink:href="#ArialMT-62"/>
      <use x="161.230469" xlink:href="#ArialMT-6d"/>
      <use x="244.53125" xlink:href="#ArialMT-69"/>
      <use x="266.748047" xlink:href="#ArialMT-74"/>
      <use x="294.53125" xlink:href="#ArialMT-74"/>
      <use x="322.314453" xlink:href="#ArialMT-65"/>
      <use x="377.929688" xlink:href="#ArialMT-64"/>
      <use x="433.544922" xlink:href="#ArialMT-20"/>
      <use x="461.328125" xlink:href="#ArialMT-6d"/>
      <use x="544.628906" xlink:href="#ArialMT-61"/>
      <use x="600.244141" xlink:href="#ArialMT-6e"/>
      <use x="655.859375" xlink:href="#ArialMT-75"/>
      <use x="711.474609" xlink:href="#ArialMT-73"/>
      <use x="761.474609" xlink:href="#ArialMT-63"/>
      <use x="811.474609" xlink:href="#ArialMT-72"/>
      <use x="844.775391" xlink:href="#ArialMT-69"/>
      <use x="866.992188" xlink:href="#ArialMT-70"/>
      <use x="922.607422" xlink:href="#ArialMT-74"/>
      <use x="950.390625" xlink:href="#ArialMT-73"/>
     </g>
    </g>
   </g>
   <g id="patch_3">
    <path clip-path="url(#p9039787879)" d="M 55.98 378 
L 100.62 378 
L 100.62 378 
L 55.98 378 
z
" style="fill:#fc8d62;stroke:#ffffff;stroke-linejoin:miter;stroke-width:1.5;"/>
   </g>
   <g id="patch_4">
    <path clip-path="url(#p9039787879)" d="M 111.78 378 
L 156.42 378 
L 156.42 374.7384 
L 111.78 374.7384 
z
" style="fill:#fc8d62;stroke:#ffffff;stroke-linejoin:miter;stroke-width:1.5;"/>
   </g>
   <g id="patch_5">
    <path clip-path="url(#p9039787879)" d="M 167.58 378 
L 212.22 378 
L 212.22 367.831482 
L 167.58 367.831482 
z
" style="fill:#fc8d62;stroke:#ffffff;stroke-linejoin:miter;stroke-width:1.5;"/>
   </g>
   <g id="patch_6">
    <path clip-path="url(#p9039787879)" d="M 223.38 378 
L 268.02 378 
L 268.02 372.436094 
L 223.38 372.436094 
z
" style="fill:#fc8d62;stroke:#ffffff;stroke-linejoin:miter;stroke-width:1.5;"/>
   </g>
   <g id="patch_7">
    <path clip-path="url(#p9039787879)" d="M 279.18 378 
L 323.82 378 
L 323.82 368.598918 
L 279.18 368.598918 
z
" style="fill:#fc8d62;stroke:#ffffff;stroke-linejoin:miter;stroke-width:1.5;"/>
   </g>
   <g id="patch_8">
    <path clip-path="url(#p9039787879)" d="M 334.98 378 
L 379.62 378 
L 379.62 370.709365 
L 334.98 370.709365 
z
" style="fill:#fc8d62;stroke:#ffffff;stroke-linejoin:miter;stroke-width:1.5;"/>
   </g>
   <g id="patch_9">
    <path clip-path="url(#p9039787879)" d="M 390.78 378 
L 435.42 378 
L 435.42 367.639624 
L 390.78 367.639624 
z
" style="fill:#fc8d62;stroke:#ffffff;stroke-linejoin:miter;stroke-width:1.5;"/>
   </g>
   <g id="patch_10">
    <path clip-path="url(#p9039787879)" d="M 446.58 378 
L 491.22 378 
L 491.22 364.761741 
L 446.58 364.761741 
z
" style="fill:#fc8d62;stroke:#ffffff;stroke-linejoin:miter;stroke-width:1.5;"/>
   </g>
   <g id="patch_11">
    <path clip-path="url(#p9039787879)" d="M 502.38 378 
L 547.02 378 
L 547.02 363.994306 
L 502.38 363.994306 
z
" style="fill:#fc8d62;stroke:#ffffff;stroke-linejoin:miter;stroke-width:1.5;"/>
   </g>
   <g id="patch_12">
    <path clip-path="url(#p9039787879)" d="M 558.18 378 
L 602.82 378 
L 602.82 361.500141 
L 558.18 361.500141 
z
" style="fill:#fc8d62;stroke:#ffffff;stroke-linejoin:miter;stroke-width:1.5;"/>
   </g>
   <g id="patch_13">
    <path clip-path="url(#p9039787879)" d="M 613.98 378 
L 658.62 378 
L 658.62 351.331624 
L 613.98 351.331624 
z
" style="fill:#fc8d62;stroke:#ffffff;stroke-linejoin:miter;stroke-width:1.5;"/>
   </g>
   <g id="patch_14">
    <path clip-path="url(#p9039787879)" d="M 669.78 378 
L 714.42 378 
L 714.42 346.535153 
L 669.78 346.535153 
z
" style="fill:#fc8d62;stroke:#ffffff;stroke-linejoin:miter;stroke-width:1.5;"/>
   </g>
   <g id="patch_15">
    <path clip-path="url(#p9039787879)" d="M 725.58 378 
L 770.22 378 
L 770.22 350.564188 
L 725.58 350.564188 
z
" style="fill:#fc8d62;stroke:#ffffff;stroke-linejoin:miter;stroke-width:1.5;"/>
   </g>
   <g id="patch_16">
    <path clip-path="url(#p9039787879)" d="M 781.38 378 
L 826.02 378 
L 826.02 339.628235 
L 781.38 339.628235 
z
" style="fill:#fc8d62;stroke:#ffffff;stroke-linejoin:miter;stroke-width:1.5;"/>
   </g>
   <g id="patch_17">
    <path clip-path="url(#p9039787879)" d="M 837.18 378 
L 881.82 378 
L 881.82 337.325929 
L 837.18 337.325929 
z
" style="fill:#fc8d62;stroke:#ffffff;stroke-linejoin:miter;stroke-width:1.5;"/>
   </g>
   <g id="patch_18">
    <path clip-path="url(#p9039787879)" d="M 892.98 378 
L 937.62 378 
L 937.62 325.238824 
L 892.98 325.238824 
z
" style="fill:#fc8d62;stroke:#ffffff;stroke-linejoin:miter;stroke-width:1.5;"/>
   </g>
   <g id="patch_19">
    <path clip-path="url(#p9039787879)" d="M 948.78 378 
L 993.42 378 
L 993.42 326.773694 
L 948.78 326.773694 
z
" style="fill:#fc8d62;stroke:#ffffff;stroke-linejoin:miter;stroke-width:1.5;"/>
   </g>
   <g id="patch_20">
    <path clip-path="url(#p9039787879)" d="M 1004.58 378 
L 1049.22 378 
L 1049.22 304.326212 
L 1004.58 304.326212 
z
" style="fill:#fc8d62;stroke:#ffffff;stroke-linejoin:miter;stroke-width:1.5;"/>
   </g>
   <g id="patch_21">
    <path clip-path="url(#p9039787879)" d="M 1060.38 378 
L 1105.02 378 
L 1105.02 258.088235 
L 1060.38 258.088235 
z
" style="fill:#fc8d62;stroke:#ffffff;stroke-linejoin:miter;stroke-width:1.5;"/>
   </g>
   <g id="patch_22">
    <path clip-path="url(#p9039787879)" d="M 1116.18 378 
L 1160.82 378 
L 1160.82 261.541694 
L 1116.18 261.541694 
z
" style="fill:#fc8d62;stroke:#ffffff;stroke-linejoin:miter;stroke-width:1.5;"/>
   </g>
   <g id="patch_23">
    <path clip-path="url(#p9039787879)" d="M 1171.98 378 
L 1216.62 378 
L 1216.62 370.517506 
L 1171.98 370.517506 
z
" style="fill:#fc8d62;stroke:#ffffff;stroke-linejoin:miter;stroke-width:1.5;"/>
   </g>
   <g id="patch_24">
    <path clip-path="url(#p9039787879)" d="M 55.98 378 
L 100.62 378 
L 100.62 377.232565 
L 55.98 377.232565 
z
" style="fill:#8da0cb;stroke:#ffffff;stroke-linejoin:miter;stroke-width:1.5;"/>
   </g>
   <g id="patch_25">
    <path clip-path="url(#p9039787879)" d="M 111.78 374.7384 
L 156.42 374.7384 
L 156.42 368.407059 
L 111.78 368.407059 
z
" style="fill:#8da0cb;stroke:#ffffff;stroke-linejoin:miter;stroke-width:1.5;"/>
   </g>
   <g id="patch_26">
    <path clip-path="url(#p9039787879)" d="M 167.58 367.831482 
L 212.22 367.831482 
L 212.22 348.261882 
L 167.58 348.261882 
z
" style="fill:#8da0cb;stroke:#ffffff;stroke-linejoin:miter;stroke-width:1.5;"/>
   </g>
   <g id="patch_27">
    <path clip-path="url(#p9039787879)" d="M 223.38 372.436094 
L 268.02 372.436094 
L 268.02 342.506118 
L 223.38 342.506118 
z
" style="fill:#8da0cb;stroke:#ffffff;stroke-linejoin:miter;stroke-width:1.5;"/>
   </g>
   <g id="patch_28">
    <path clip-path="url(#p9039787879)" d="M 279.18 368.598918 
L 323.82 368.598918 
L 323.82 333.680612 
L 279.18 333.680612 
z
" style="fill:#8da0cb;stroke:#ffffff;stroke-linejoin:miter;stroke-width:1.5;"/>
   </g>
   <g id="patch_29">
    <path clip-path="url(#p9039787879)" d="M 334.98 370.709365 
L 379.62 370.709365 
L 379.62 340.971247 
L 334.98 340.971247 
z
" style="fill:#8da0cb;stroke:#ffffff;stroke-linejoin:miter;stroke-width:1.5;"/>
   </g>
   <g id="patch_30">
    <path clip-path="url(#p9039787879)" d="M 390.78 367.639624 
L 435.42 367.639624 
L 435.42 331.953882 
L 390.78 331.953882 
z
" style="fill:#8da0cb;stroke:#ffffff;stroke-linejoin:miter;stroke-width:1.5;"/>
   </g>
   <g id="patch_31">
    <path clip-path="url(#p9039787879)" d="M 446.58 364.761741 
L 491.22 364.761741 
L 491.22 337.134071 
L 446.58 337.134071 
z
" style="fill:#8da0cb;stroke:#ffffff;stroke-linejoin:miter;stroke-width:1.5;"/>
   </g>
   <g id="patch_32">
    <path clip-path="url(#p9039787879)" d="M 502.38 363.994306 
L 547.02 363.994306 
L 547.02 328.692282 
L 502.38 328.692282 
z
" style="fill:#8da0cb;stroke:#ffffff;stroke-linejoin:miter;stroke-width:1.5;"/>
   </g>
   <g id="patch_33">
    <path clip-path="url(#p9039787879)" d="M 558.18 361.500141 
L 602.82 361.500141 
L 602.82 328.500424 
L 558.18 328.500424 
z
" style="fill:#8da0cb;stroke:#ffffff;stroke-linejoin:miter;stroke-width:1.5;"/>
   </g>
   <g id="patch_34">
    <path clip-path="url(#p9039787879)" d="M 613.98 351.331624 
L 658.62 351.331624 
L 658.62 317.564471 
L 613.98 317.564471 
z
" style="fill:#8da0cb;stroke:#ffffff;stroke-linejoin:miter;stroke-width:1.5;"/>
   </g>
   <g id="patch_35">
    <path clip-path="url(#p9039787879)" d="M 669.78 346.535153 
L 714.42 346.535153 
L 714.42 302.023906 
L 669.78 302.023906 
z
" style="fill:#8da0cb;stroke:#ffffff;stroke-linejoin:miter;stroke-width:1.5;"/>
   </g>
   <g id="patch_36">
    <path clip-path="url(#p9039787879)" d="M 725.58 350.564188 
L 770.22 350.564188 
L 770.22 314.111012 
L 725.58 314.111012 
z
" style="fill:#8da0cb;stroke:#ffffff;stroke-linejoin:miter;stroke-width:1.5;"/>
   </g>
   <g id="patch_37">
    <path clip-path="url(#p9039787879)" d="M 781.38 339.628235 
L 826.02 339.628235 
L 826.02 298.570447 
L 781.38 298.570447 
z
" style="fill:#8da0cb;stroke:#ffffff;stroke-linejoin:miter;stroke-width:1.5;"/>
   </g>
   <g id="patch_38">
    <path clip-path="url(#p9039787879)" d="M 837.18 337.325929 
L 881.82 337.325929 
L 881.82 300.105318 
L 837.18 300.105318 
z
" style="fill:#8da0cb;stroke:#ffffff;stroke-linejoin:miter;stroke-width:1.5;"/>
   </g>
   <g id="patch_39">
    <path clip-path="url(#p9039787879)" d="M 892.98 325.238824 
L 937.62 325.238824 
L 937.62 283.4136 
L 892.98 283.4136 
z
" style="fill:#8da0cb;stroke:#ffffff;stroke-linejoin:miter;stroke-width:1.5;"/>
   </g>
   <g id="patch_40">
    <path clip-path="url(#p9039787879)" d="M 948.78 326.773694 
L 993.42 326.773694 
L 993.42 265.570729 
L 948.78 265.570729 
z
" style="fill:#8da0cb;stroke:#ffffff;stroke-linejoin:miter;stroke-width:1.5;"/>
   </g>
   <g id="patch_41">
    <path clip-path="url(#p9039787879)" d="M 1004.58 304.326212 
L 1049.22 304.326212 
L 1049.22 229.309412 
L 1004.58 229.309412 
z
" style="fill:#8da0cb;stroke:#ffffff;stroke-linejoin:miter;stroke-width:1.5;"/>
   </g>
   <g id="patch_42">
    <path clip-path="url(#p9039787879)" d="M 1060.38 258.088235 
L 1105.02 258.088235 
L 1105.02 185.181882 
L 1060.38 185.181882 
z
" style="fill:#8da0cb;stroke:#ffffff;stroke-linejoin:miter;stroke-width:1.5;"/>
   </g>
   <g id="patch_43">
    <path clip-path="url(#p9039787879)" d="M 1116.18 261.541694 
L 1160.82 261.541694 
L 1160.82 122.827765 
L 1116.18 122.827765 
z
" style="fill:#8da0cb;stroke:#ffffff;stroke-linejoin:miter;stroke-width:1.5;"/>
   </g>
   <g id="patch_44">
    <path clip-path="url(#p9039787879)" d="M 1171.98 370.517506 
L 1216.62 370.517506 
L 1216.62 363.610588 
L 1171.98 363.610588 
z
" style="fill:#8da0cb;stroke:#ffffff;stroke-linejoin:miter;stroke-width:1.5;"/>
   </g>
   <g id="patch_45">
    <path clip-path="url(#p9039787879)" d="M 111.78 368.407059 
L 156.42 368.407059 
L 156.42 365.529176 
L 111.78 365.529176 
z
" style="fill:#66c2a5;stroke:#ffffff;stroke-linejoin:miter;stroke-width:1.5;"/>
   </g>
   <g id="patch_46">
    <path clip-path="url(#p9039787879)" d="M 167.58 348.261882 
L 212.22 348.261882 
L 212.22 341.738682 
L 167.58 341.738682 
z
" style="fill:#66c2a5;stroke:#ffffff;stroke-linejoin:miter;stroke-width:1.5;"/>
   </g>
   <g id="patch_47">
    <path clip-path="url(#p9039787879)" d="M 223.38 342.506118 
L 268.02 342.506118 
L 268.02 328.692282 
L 223.38 328.692282 
z
" style="fill:#66c2a5;stroke:#ffffff;stroke-linejoin:miter;stroke-width:1.5;"/>
   </g>
   <g id="patch_48">
    <path clip-path="url(#p9039787879)" d="M 279.18 333.680612 
L 323.82 333.680612 
L 323.82 315.837741 
L 279.18 315.837741 
z
" style="fill:#66c2a5;stroke:#ffffff;stroke-linejoin:miter;stroke-width:1.5;"/>
   </g>
   <g id="patch_49">
    <path clip-path="url(#p9039787879)" d="M 334.98 340.971247 
L 379.62 340.971247 
L 379.62 322.5528 
L 334.98 322.5528 
z
" style="fill:#66c2a5;stroke:#ffffff;stroke-linejoin:miter;stroke-width:1.5;"/>
   </g>
   <g id="patch_50">
    <path clip-path="url(#p9039787879)" d="M 390.78 331.953882 
L 435.42 331.953882 
L 435.42 312.384282 
L 390.78 312.384282 
z
" style="fill:#66c2a5;stroke:#ffffff;stroke-linejoin:miter;stroke-width:1.5;"/>
   </g>
   <g id="patch_51">
    <path clip-path="url(#p9039787879)" d="M 446.58 337.134071 
L 491.22 337.134071 
L 491.22 317.564471 
L 446.58 317.564471 
z
" style="fill:#66c2a5;stroke:#ffffff;stroke-linejoin:miter;stroke-width:1.5;"/>
   </g>
   <g id="patch_52">
    <path clip-path="url(#p9039787879)" d="M 502.38 328.692282 
L 547.02 328.692282 
L 547.02 307.587812 
L 502.38 307.587812 
z
" style="fill:#66c2a5;stroke:#ffffff;stroke-linejoin:miter;stroke-width:1.5;"/>
   </g>
   <g id="patch_53">
    <path clip-path="url(#p9039787879)" d="M 558.18 328.500424 
L 602.82 328.500424 
L 602.82 308.930824 
L 558.18 308.930824 
z
" style="fill:#66c2a5;stroke:#ffffff;stroke-linejoin:miter;stroke-width:1.5;"/>
   </g>
   <g id="patch_54">
    <path clip-path="url(#p9039787879)" d="M 613.98 317.564471 
L 658.62 317.564471 
L 658.62 293.773976 
L 613.98 293.773976 
z
" style="fill:#66c2a5;stroke:#ffffff;stroke-linejoin:miter;stroke-width:1.5;"/>
   </g>
   <g id="patch_55">
    <path clip-path="url(#p9039787879)" d="M 669.78 302.023906 
L 714.42 302.023906 
L 714.42 276.122965 
L 669.78 276.122965 
z
" style="fill:#66c2a5;stroke:#ffffff;stroke-linejoin:miter;stroke-width:1.5;"/>
   </g>
   <g id="patch_56">
    <path clip-path="url(#p9039787879)" d="M 725.58 314.111012 
L 770.22 314.111012 
L 770.22 288.210071 
L 725.58 288.210071 
z
" style="fill:#66c2a5;stroke:#ffffff;stroke-linejoin:miter;stroke-width:1.5;"/>
   </g>
   <g id="patch_57">
    <path clip-path="url(#p9039787879)" d="M 781.38 298.570447 
L 826.02 298.570447 
L 826.02 269.983482 
L 781.38 269.983482 
z
" style="fill:#66c2a5;stroke:#ffffff;stroke-linejoin:miter;stroke-width:1.5;"/>
   </g>
   <g id="patch_58">
    <path clip-path="url(#p9039787879)" d="M 837.18 300.105318 
L 881.82 300.105318 
L 881.82 270.3672 
L 837.18 270.3672 
z
" style="fill:#66c2a5;stroke:#ffffff;stroke-linejoin:miter;stroke-width:1.5;"/>
   </g>
   <g id="patch_59">
    <path clip-path="url(#p9039787879)" d="M 892.98 283.4136 
L 937.62 283.4136 
L 937.62 252.332471 
L 892.98 252.332471 
z
" style="fill:#66c2a5;stroke:#ffffff;stroke-linejoin:miter;stroke-width:1.5;"/>
   </g>
   <g id="patch_60">
    <path clip-path="url(#p9039787879)" d="M 948.78 265.570729 
L 993.42 265.570729 
L 993.42 234.105882 
L 948.78 234.105882 
z
" style="fill:#66c2a5;stroke:#ffffff;stroke-linejoin:miter;stroke-width:1.5;"/>
   </g>
   <g id="patch_61">
    <path clip-path="url(#p9039787879)" d="M 1004.58 229.309412 
L 1049.22 229.309412 
L 1049.22 195.542259 
L 1004.58 195.542259 
z
" style="fill:#66c2a5;stroke:#ffffff;stroke-linejoin:miter;stroke-width:1.5;"/>
   </g>
   <g id="patch_62">
    <path clip-path="url(#p9039787879)" d="M 1060.38 185.181882 
L 1105.02 185.181882 
L 1105.02 133.38 
L 1060.38 133.38 
z
" style="fill:#66c2a5;stroke:#ffffff;stroke-linejoin:miter;stroke-width:1.5;"/>
   </g>
   <g id="patch_63">
    <path clip-path="url(#p9039787879)" d="M 1116.18 122.827765 
L 1160.82 122.827765 
L 1160.82 63.927106 
L 1116.18 63.927106 
z
" style="fill:#66c2a5;stroke:#ffffff;stroke-linejoin:miter;stroke-width:1.5;"/>
   </g>
   <g id="patch_64">
    <path clip-path="url(#p9039787879)" d="M 1171.98 363.610588 
L 1216.62 363.610588 
L 1216.62 360.540847 
L 1171.98 360.540847 
z
" style="fill:#66c2a5;stroke:#ffffff;stroke-linejoin:miter;stroke-width:1.5;"/>
   </g>
   <g id="patch_65">
    <path d="M 162 378 
L 162 51.84 
" style="fill:none;stroke:#262626;stroke-linecap:square;stroke-linejoin:miter;stroke-width:1.875;"/>
   </g>
   <g id="patch_66">
    <path d="M 162 378 
L 1166.4 378 
" style="fill:none;stroke:#262626;stroke-linecap:square;stroke-linejoin:miter;stroke-width:1.875;"/>
   </g>
   <g id="text_30">
    <!-- 189 -->
    <g style="fill:#262626;" transform="translate(167.58 335.982918)scale(0.18 -0.18)">
     <use xlink:href="#ArialMT-31"/>
     <use x="55.615234" xlink:href="#ArialMT-38"/>
     <use x="111.230469" xlink:href="#ArialMT-39"/>
    </g>
   </g>
   <g id="text_31">
    <!-- 257 -->
    <g style="fill:#262626;" transform="translate(223.38 322.936518)scale(0.18 -0.18)">
     <use xlink:href="#ArialMT-32"/>
     <use x="55.615234" xlink:href="#ArialMT-35"/>
     <use x="111.230469" xlink:href="#ArialMT-37"/>
    </g>
   </g>
   <g id="text_32">
    <!-- 324 -->
    <g style="fill:#262626;" transform="translate(279.18 310.081976)scale(0.18 -0.18)">
     <use xlink:href="#ArialMT-33"/>
     <use x="55.615234" xlink:href="#ArialMT-32"/>
     <use x="111.230469" xlink:href="#ArialMT-34"/>
    </g>
   </g>
   <g id="text_33">
    <!-- 289 -->
    <g style="fill:#262626;" transform="translate(334.98 316.797035)scale(0.18 -0.18)">
     <use xlink:href="#ArialMT-32"/>
     <use x="55.615234" xlink:href="#ArialMT-38"/>
     <use x="111.230469" xlink:href="#ArialMT-39"/>
    </g>
   </g>
   <g id="text_34">
    <!-- 342 -->
    <g style="fill:#262626;" transform="translate(390.78 306.628518)scale(0.18 -0.18)">
     <use xlink:href="#ArialMT-33"/>
     <use x="55.615234" xlink:href="#ArialMT-34"/>
     <use x="111.230469" xlink:href="#ArialMT-32"/>
    </g>
   </g>
   <g id="text_35">
    <!-- 315 -->
    <g style="fill:#262626;" transform="translate(446.58 311.808706)scale(0.18 -0.18)">
     <use xlink:href="#ArialMT-33"/>
     <use x="55.615234" xlink:href="#ArialMT-31"/>
     <use x="111.230469" xlink:href="#ArialMT-35"/>
    </g>
   </g>
   <g id="text_36">
    <!-- 367 -->
    <g style="fill:#262626;" transform="translate(502.38 301.832047)scale(0.18 -0.18)">
     <use xlink:href="#ArialMT-33"/>
     <use x="55.615234" xlink:href="#ArialMT-36"/>
     <use x="111.230469" xlink:href="#ArialMT-37"/>
    </g>
   </g>
   <g id="text_37">
    <!-- 360 -->
    <g style="fill:#262626;" transform="translate(558.18 303.175059)scale(0.18 -0.18)">
     <use xlink:href="#ArialMT-33"/>
     <use x="55.615234" xlink:href="#ArialMT-36"/>
     <use x="111.230469" xlink:href="#ArialMT-30"/>
    </g>
   </g>
   <g id="text_38">
    <!-- 439 -->
    <g style="fill:#262626;" transform="translate(613.98 288.018212)scale(0.18 -0.18)">
     <use xlink:href="#ArialMT-34"/>
     <use x="55.615234" xlink:href="#ArialMT-33"/>
     <use x="111.230469" xlink:href="#ArialMT-39"/>
    </g>
   </g>
   <g id="text_39">
    <!-- 531 -->
    <g style="fill:#262626;" transform="translate(669.78 270.3672)scale(0.18 -0.18)">
     <use xlink:href="#ArialMT-35"/>
     <use x="55.615234" xlink:href="#ArialMT-33"/>
     <use x="111.230469" xlink:href="#ArialMT-31"/>
    </g>
   </g>
   <g id="text_40">
    <!-- 468 -->
    <g style="fill:#262626;" transform="translate(725.58 282.454306)scale(0.18 -0.18)">
     <use xlink:href="#ArialMT-34"/>
     <use x="55.615234" xlink:href="#ArialMT-36"/>
     <use x="111.230469" xlink:href="#ArialMT-38"/>
    </g>
   </g>
   <g id="text_41">
    <!-- 563 -->
    <g style="fill:#262626;" transform="translate(781.38 264.227718)scale(0.18 -0.18)">
     <use xlink:href="#ArialMT-35"/>
     <use x="55.615234" xlink:href="#ArialMT-36"/>
     <use x="111.230469" xlink:href="#ArialMT-33"/>
    </g>
   </g>
   <g id="text_42">
    <!-- 561 -->
    <g style="fill:#262626;" transform="translate(837.18 264.611435)scale(0.18 -0.18)">
     <use xlink:href="#ArialMT-35"/>
     <use x="55.615234" xlink:href="#ArialMT-36"/>
     <use x="111.230469" xlink:href="#ArialMT-31"/>
    </g>
   </g>
   <g id="text_43">
    <!-- 655 -->
    <g style="fill:#262626;" transform="translate(892.98 246.576706)scale(0.18 -0.18)">
     <use xlink:href="#ArialMT-36"/>
     <use x="55.615234" xlink:href="#ArialMT-35"/>
     <use x="111.230469" xlink:href="#ArialMT-35"/>
    </g>
   </g>
   <g id="text_44">
    <!-- 750 -->
    <g style="fill:#262626;" transform="translate(948.78 228.350118)scale(0.18 -0.18)">
     <use xlink:href="#ArialMT-37"/>
     <use x="55.615234" xlink:href="#ArialMT-35"/>
     <use x="111.230469" xlink:href="#ArialMT-30"/>
    </g>
   </g>
   <g id="text_45">
    <!-- 951 -->
    <g style="fill:#262626;" transform="translate(1004.58 189.786494)scale(0.18 -0.18)">
     <use xlink:href="#ArialMT-39"/>
     <use x="55.615234" xlink:href="#ArialMT-35"/>
     <use x="111.230469" xlink:href="#ArialMT-31"/>
    </g>
   </g>
   <g id="text_46">
    <!-- 1275 -->
    <g style="fill:#262626;" transform="translate(1060.38 127.624235)scale(0.18 -0.18)">
     <use xlink:href="#ArialMT-31"/>
     <use x="55.615234" xlink:href="#ArialMT-32"/>
     <use x="111.230469" xlink:href="#ArialMT-37"/>
     <use x="166.845703" xlink:href="#ArialMT-35"/>
    </g>
   </g>
   <g id="text_47">
    <!-- 1637 -->
    <g style="fill:#262626;" transform="translate(1116.18 58.171341)scale(0.18 -0.18)">
     <use xlink:href="#ArialMT-31"/>
     <use x="55.615234" xlink:href="#ArialMT-36"/>
     <use x="111.230469" xlink:href="#ArialMT-33"/>
     <use x="166.845703" xlink:href="#ArialMT-37"/>
    </g>
   </g>
   <g id="legend_1">
    <g id="patch_67">
     <path d="M 180 84.155625 
L 220 84.155625 
L 220 70.155625 
L 180 70.155625 
z
" style="fill:#fc8d62;stroke:#ffffff;stroke-linejoin:miter;stroke-width:1.5;"/>
    </g>
    <g id="text_48">
     <!-- Desk Reject -->
     <g style="fill:#262626;" transform="translate(236 84.155625)scale(0.2 -0.2)">
      <defs>
       <path d="M 494 0 
L 494 4581 
L 2072 4581 
Q 2606 4581 2888 4516 
Q 3281 4425 3559 4188 
Q 3922 3881 4101 3404 
Q 4281 2928 4281 2316 
Q 4281 1794 4159 1391 
Q 4038 988 3847 723 
Q 3656 459 3429 307 
Q 3203 156 2883 78 
Q 2563 0 2147 0 
L 494 0 
z
M 1100 541 
L 2078 541 
Q 2531 541 2789 625 
Q 3047 709 3200 863 
Q 3416 1078 3536 1442 
Q 3656 1806 3656 2325 
Q 3656 3044 3420 3430 
Q 3184 3816 2847 3947 
Q 2603 4041 2063 4041 
L 1100 4041 
L 1100 541 
z
" id="ArialMT-44" transform="scale(0.015625)"/>
       <path d="M 425 0 
L 425 4581 
L 988 4581 
L 988 1969 
L 2319 3319 
L 3047 3319 
L 1778 2088 
L 3175 0 
L 2481 0 
L 1384 1697 
L 988 1316 
L 988 0 
L 425 0 
z
" id="ArialMT-6b" transform="scale(0.015625)"/>
       <path d="M 503 0 
L 503 4581 
L 2534 4581 
Q 3147 4581 3465 4457 
Q 3784 4334 3975 4021 
Q 4166 3709 4166 3331 
Q 4166 2844 3850 2509 
Q 3534 2175 2875 2084 
Q 3116 1969 3241 1856 
Q 3506 1613 3744 1247 
L 4541 0 
L 3778 0 
L 3172 953 
Q 2906 1366 2734 1584 
Q 2563 1803 2427 1890 
Q 2291 1978 2150 2013 
Q 2047 2034 1813 2034 
L 1109 2034 
L 1109 0 
L 503 0 
z
M 1109 2559 
L 2413 2559 
Q 2828 2559 3062 2645 
Q 3297 2731 3419 2920 
Q 3541 3109 3541 3331 
Q 3541 3656 3305 3865 
Q 3069 4075 2559 4075 
L 1109 4075 
L 1109 2559 
z
" id="ArialMT-52" transform="scale(0.015625)"/>
       <path d="M 419 3928 
L 419 4581 
L 981 4581 
L 981 3928 
L 419 3928 
z
M -294 -1288 
L -188 -809 
Q -19 -853 78 -853 
Q 250 -853 334 -739 
Q 419 -625 419 -169 
L 419 3319 
L 981 3319 
L 981 -181 
Q 981 -794 822 -1034 
Q 619 -1347 147 -1347 
Q -81 -1347 -294 -1288 
z
" id="ArialMT-6a" transform="scale(0.015625)"/>
      </defs>
      <use xlink:href="#ArialMT-44"/>
      <use x="72.216797" xlink:href="#ArialMT-65"/>
      <use x="127.832031" xlink:href="#ArialMT-73"/>
      <use x="177.832031" xlink:href="#ArialMT-6b"/>
      <use x="227.832031" xlink:href="#ArialMT-20"/>
      <use x="255.615234" xlink:href="#ArialMT-52"/>
      <use x="327.832031" xlink:href="#ArialMT-65"/>
      <use x="383.447266" xlink:href="#ArialMT-6a"/>
      <use x="405.664062" xlink:href="#ArialMT-65"/>
      <use x="461.279297" xlink:href="#ArialMT-63"/>
      <use x="511.279297" xlink:href="#ArialMT-74"/>
     </g>
    </g>
    <g id="patch_68">
     <path d="M 383.809375 84.155625 
L 423.809375 84.155625 
L 423.809375 70.155625 
L 383.809375 70.155625 
z
" style="fill:#8da0cb;stroke:#ffffff;stroke-linejoin:miter;stroke-width:1.5;"/>
    </g>
    <g id="text_49">
     <!-- Reject -->
     <g style="fill:#262626;" transform="translate(439.809375 84.155625)scale(0.2 -0.2)">
      <use xlink:href="#ArialMT-52"/>
      <use x="72.216797" xlink:href="#ArialMT-65"/>
      <use x="127.832031" xlink:href="#ArialMT-6a"/>
      <use x="150.048828" xlink:href="#ArialMT-65"/>
      <use x="205.664062" xlink:href="#ArialMT-63"/>
      <use x="255.664062" xlink:href="#ArialMT-74"/>
     </g>
    </g>
    <g id="patch_69">
     <path d="M 536.496875 84.155625 
L 576.496875 84.155625 
L 576.496875 70.155625 
L 536.496875 70.155625 
z
" style="fill:#66c2a5;stroke:#ffffff;stroke-linejoin:miter;stroke-width:1.5;"/>
    </g>
    <g id="text_50">
     <!-- Accept -->
     <g style="fill:#262626;" transform="translate(592.496875 84.155625)scale(0.2 -0.2)">
      <defs>
       <path d="M -9 0 
L 1750 4581 
L 2403 4581 
L 4278 0 
L 3588 0 
L 3053 1388 
L 1138 1388 
L 634 0 
L -9 0 
z
M 1313 1881 
L 2866 1881 
L 2388 3150 
Q 2169 3728 2063 4100 
Q 1975 3659 1816 3225 
L 1313 1881 
z
" id="ArialMT-41" transform="scale(0.015625)"/>
      </defs>
      <use xlink:href="#ArialMT-41"/>
      <use x="66.699219" xlink:href="#ArialMT-63"/>
      <use x="116.699219" xlink:href="#ArialMT-63"/>
      <use x="166.699219" xlink:href="#ArialMT-65"/>
      <use x="222.314453" xlink:href="#ArialMT-70"/>
      <use x="277.929688" xlink:href="#ArialMT-74"/>
     </g>
    </g>
   </g>
  </g>
 </g>
 <defs>
  <clipPath id="p9039787879">
   <rect height="326.16" width="1004.4" x="162" y="51.84"/>
  </clipPath>
 </defs>
</svg>
